<?xml version="1.0" encoding="UTF-8"?>
<!DOCTYPE svg PUBLIC "-//W3C//DTD SVG 1.1//EN" "http://www.w3.org/Graphics/SVG/1.1/DTD/svg11.dtd">
<svg xmlns="http://www.w3.org/2000/svg" version="1.1"
     width="950px"
     height="300px"
     viewBox="400 50 1 200"
     style="shape-rendering:geometricPrecision; text-rendering:geometricPrecision; image-rendering:optimizeQuality; fill-rule:evenodd; clip-rule:evenodd"
     xmlns:xlink="http://www.w3.org/1999/xlink">
    <g>
        <path fill="#000000"
              d="M 331.5,133.5 C 332.609,134.29 333.942,134.79 335.5,135C 340,135.167 344.5,135.333 349,135.5C 354.619,135.446 359.786,135.113 364.5,134.5C 372.33,139.209 372.33,144.043 364.5,149C 343.5,149.667 322.5,149.667 301.5,149C 297.389,147.049 295.389,144.049 295.5,140C 311.38,120.547 327.713,101.547 344.5,83C 329.859,81.8634 315.193,81.1968 300.5,81C 293.571,74.2892 294.737,69.1225 304,65.5C 312.067,66.0213 320.4,66.0213 329,65.5C 341.175,65.7838 353.342,66.2838 365.5,67C 368.598,68.2679 370.265,70.6012 370.5,74C 369.305,77.5597 367.471,80.7264 365,83.5C 350.471,100.025 335.971,116.525 321.5,133C 324.817,133.498 328.15,133.665 331.5,133.5 Z"/>
    </g>
    <g>
        <path fill="#000000"
              d="M 417.5,65.5 C 427.276,65.8166 436.109,68.8166 444,74.5C 447.791,65.2164 453.125,63.883 460,70.5C 460.667,95.1667 460.667,119.833 460,144.5C 457.335,149.434 453.502,150.601 448.5,148C 445.712,145.601 444.546,142.768 445,139.5C 426.345,153.263 408.179,152.596 390.5,137.5C 380.012,125.997 376.012,112.83 378.5,98C 384.728,78.9308 397.728,68.0974 417.5,65.5 Z M 417.5,81.5 C 437.222,83.3469 446.389,94.0136 445,113.5C 437.511,132.226 424.344,137.726 405.5,130C 392.187,119.169 390.021,106.336 399,91.5C 404.186,86.16 410.353,82.8266 417.5,81.5 Z"/>
    </g>
    <g>
        <path fill="#000000"
              d="M 492.5,65.5 C 496.097,65.6968 498.763,67.3635 500.5,70.5C 510.649,63.8786 520.149,64.8786 529,73.5C 530.706,77.0788 532.539,80.5788 534.5,84C 529.031,95.118 523.197,95.2847 517,84.5C 513.497,80.9611 509.663,80.7945 505.5,84C 504.696,85.7713 503.529,87.2713 502,88.5C 500.888,97.9431 500.388,107.443 500.5,117C 500.521,125.7 500.854,134.366 501.5,143C 495.935,151.808 490.769,151.641 486,142.5C 485.333,119.5 485.333,96.5 486,73.5C 486.583,69.4277 488.75,66.761 492.5,65.5 Z"/>
    </g>
    <g>
        <path fill="#000000"
              d="M 581.5,65.5 C 591.31,66.0795 599.976,69.4129 607.5,75.5C 607.709,70.4192 610.542,67.0859 616,65.5C 618.868,66.3608 621.202,68.0275 623,70.5C 623.667,95.1667 623.667,119.833 623,144.5C 619.684,149.705 615.517,150.538 610.5,147C 608.524,144.624 607.691,142.124 608,139.5C 592.47,151.689 575.97,152.522 558.5,142C 543.23,129.504 538.064,113.338 543,93.5C 550.665,76.9296 563.498,67.5963 581.5,65.5 Z M 556.5,112.5 C 556.5,109.167 556.5,105.833 556.5,102.5C 562.906,85.4638 574.906,79.2972 592.5,84C 603.983,90.3411 609.316,99.6744 608.5,112C 601.571,131.875 588.238,137.875 568.5,130C 562.258,125.61 558.258,119.777 556.5,112.5 Z"/>
    </g>
    <g>
        <path fill="#000000"
              d="M 689.5,133.5 C 685.353,134.325 681.019,134.825 676.5,135C 686.675,135.825 696.675,135.658 706.5,134.5C 710.348,135.176 712.015,137.509 711.5,141.5C 711.664,145.177 709.997,147.677 706.5,149C 685.5,149.667 664.5,149.667 643.5,149C 640.441,147.401 638.441,144.901 637.5,141.5C 639.045,137.783 641.212,134.45 644,131.5C 658.529,114.975 673.029,98.4746 687.5,82C 672.667,82.2099 657.667,81.8766 642.5,81C 637.778,78.0756 636.778,74.2423 639.5,69.5C 641.045,67.5604 643.045,66.3938 645.5,66C 663.357,65.7493 681.191,65.5827 699,65.5C 704.934,64.8845 709.434,67.0512 712.5,72C 711.167,73.3333 711.167,74.6667 712.5,76C 696.137,95.0252 679.804,114.025 663.5,133C 672.16,133.5 680.827,133.666 689.5,133.5 Z"/>
    </g>
    <g>
        <path fill="#FF0043"
              d="M 203.5,59.5 C 212.892,58.61 219.726,62.2767 224,70.5C 225.081,75.4762 226.081,80.4762 227,85.5C 230.833,89.3333 234.667,93.1667 238.5,97C 243.476,98.0809 248.476,99.0809 253.5,100C 265.054,106.627 267.554,115.794 261,127.5C 258.441,130.531 255.274,132.698 251.5,134C 220.139,134.789 191.472,143.789 165.5,161C 159.599,168.768 160.265,175.768 167.5,182C 177.36,187.509 187.86,191.009 199,192.5C 213.797,189.474 222.631,195.307 225.5,210C 221.561,227.322 211.561,231.989 195.5,224C 188.632,209.797 178.299,198.797 164.5,191C 159.924,189.524 155.257,189.19 150.5,190C 132.643,200.161 116.81,197.661 103,182.5C 93.0918,162.559 97.5918,146.726 116.5,135C 124.833,131.667 133.167,131.667 141.5,135C 146.187,137.699 150.853,140.366 155.5,143C 180.543,143.874 202.877,136.541 222.5,121C 226.417,117.672 227.917,113.505 227,108.5C 222.591,103.42 217.591,99.0863 212,95.5C 200.764,97.2049 193.431,92.5382 190,81.5C 189.191,70.7647 193.691,63.4314 203.5,59.5 Z M 204.5,63.5 C 213.891,62.4374 219.724,66.4374 222,75.5C 222.143,79.6192 222.81,83.6192 224,87.5C 228.167,91.6667 232.333,95.8333 236.5,100C 241.306,101.869 246.306,102.869 251.5,103C 259.905,107.539 262.405,114.372 259,123.5C 258.5,123 258,122.5 257.5,122C 259.324,116.401 258.49,111.234 255,106.5C 254.075,107.047 253.242,107.713 252.5,108.5C 256.5,113.833 256.5,119.167 252.5,124.5C 254.401,125.935 254.734,127.602 253.5,129.5C 244.265,133.252 237.432,130.585 233,121.5C 232.918,115.837 231.584,110.504 229,105.5C 224.756,100.585 219.923,96.4187 214.5,93C 199.502,94.0025 192.668,87.1692 194,72.5C 196.052,67.7356 199.552,64.7356 204.5,63.5 Z M 228.5,122.5 C 229.909,124.972 231.576,127.305 233.5,129.5C 227.967,131.282 222.3,132.949 216.5,134.5C 215.354,133.855 214.354,133.022 213.5,132C 218.788,128.768 223.622,124.935 228,120.5C 228.464,121.094 228.631,121.761 228.5,122.5 Z M 124.5,136.5 C 143.822,135.654 154.822,144.821 157.5,164C 154.299,185.439 141.965,194.439 120.5,191C 101.64,181.759 96.8069,167.592 106,148.5C 110.652,142.095 116.818,138.095 124.5,136.5 Z M 206.5,136.5 C 205.22,137.931 203.553,138.598 201.5,138.5C 202.78,137.069 204.447,136.402 206.5,136.5 Z M 196.5,140.5 C 195.22,141.931 193.553,142.598 191.5,142.5C 192.78,141.069 194.447,140.402 196.5,140.5 Z M 191.5,142.5 C 189.898,144.074 187.898,144.741 185.5,144.5C 187.214,143.262 189.214,142.595 191.5,142.5 Z M 180.5,147.5 C 180.158,148.338 179.492,148.672 178.5,148.5C 171.38,151.886 165.547,156.219 161,161.5C 160.413,156.466 158.913,151.799 156.5,147.5C 163.766,147.803 170.933,147.136 178,145.5C 179.011,146.056 179.844,146.722 180.5,147.5 Z M 159.5,179.5 C 159.167,179.5 158.833,179.5 158.5,179.5C 157.537,178.637 157.537,177.97 158.5,177.5C 159.298,177.957 159.631,178.624 159.5,179.5 Z M 158.5,179.5 C 158.833,180.5 159.5,181.167 160.5,181.5C 161.347,182.966 162.68,183.8 164.5,184C 164.167,184.333 163.833,184.667 163.5,185C 164.416,185.278 165.082,185.778 165.5,186.5C 161.529,186.515 158.529,184.848 156.5,181.5C 156.855,180.478 157.522,179.811 158.5,179.5 Z M 154.5,182.5 C 155.309,183.469 156.309,184.302 157.5,185C 154.457,185.862 153.457,185.029 154.5,182.5 Z M 214.5,220.5 C 215.172,219.733 216.005,219.066 217,218.5C 217.749,217.365 217.583,216.365 216.5,215.5C 211.521,220.122 206.354,220.455 201,216.5C 199.317,217.176 199.15,218.176 200.5,219.5C 199.453,220.078 199.62,220.744 201,221.5C 201.399,221.272 201.565,220.938 201.5,220.5C 202.492,220.328 203.158,220.662 203.5,221.5C 202.833,221.5 202.5,221.833 202.5,222.5C 199.386,221.909 196.886,220.242 195,217.5C 193.519,214.044 191.852,210.711 190,207.5C 187.128,204.963 184.628,202.13 182.5,199C 176.766,194.812 171.099,190.646 165.5,186.5C 166.117,186.389 166.617,186.056 167,185.5C 179.277,193.376 192.611,196.709 207,195.5C 219.456,197.447 223.956,204.447 220.5,216.5C 219.25,219.049 217.25,220.382 214.5,220.5 Z M 214.5,220.5 C 214.316,223.173 213.149,223.84 211,222.5C 208.169,224.918 205.335,224.918 202.5,222.5C 203.167,222.5 203.5,222.167 203.5,221.5C 207.176,222.171 210.842,221.838 214.5,220.5 Z"/>
    </g>
    <g>
        <path fill="#000000"
              d="M 556.5,102.5 C 556.5,105.833 556.5,109.167 556.5,112.5C 555.883,112.389 555.383,112.056 555,111.5C 554.333,108.833 554.333,106.167 555,103.5C 555.383,102.944 555.883,102.611 556.5,102.5 Z"/>
    </g>
    <g>
        <path fill="#000000"
              d="M 331.5,133.5 C 342.679,133.172 353.679,133.505 364.5,134.5C 359.786,135.113 354.619,135.446 349,135.5C 344.5,135.333 340,135.167 335.5,135C 333.942,134.79 332.609,134.29 331.5,133.5 Z"/>
    </g>
    <g>
        <path fill="#000000"
              d="M 689.5,133.5 C 695.358,133.178 701.025,133.511 706.5,134.5C 696.675,135.658 686.675,135.825 676.5,135C 681.019,134.825 685.353,134.325 689.5,133.5 Z"/>
    </g>
    <g>
        <path fill="#000000"
              d="M 120.5,141.5 C 119.833,141.5 119.167,141.5 118.5,141.5C 119.167,138.833 119.833,138.833 120.5,141.5 Z"/>
    </g>
    <g>
        <path fill="#000000"
              d="M 108.5,152.5 C 109.267,151.828 109.934,150.995 110.5,150C 110.272,149.601 109.938,149.435 109.5,149.5C 110.168,146.333 111.834,143.833 114.5,142C 115.793,141.51 117.127,141.343 118.5,141.5C 119.167,142.833 119.833,142.833 120.5,141.5C 123.83,140.334 127.163,140.334 130.5,141.5C 117.548,143.62 110.048,151.287 108,164.5C 106.266,160.511 106.432,156.511 108.5,152.5 Z"/>
    </g>
    <g>
        <path fill="#000000"
              d="M 108.5,150.5 C 108.5,151.167 108.5,151.833 108.5,152.5C 106.067,151.452 106.067,150.786 108.5,150.5 Z"/>
    </g>
    <g>
        <path fill="#000000"
              d="M 441.5,180.5 C 452.886,179.608 461.052,184.274 466,194.5C 468.556,208.707 462.89,218.041 449,222.5C 428.83,219.84 422.163,208.84 429,189.5C 432.651,185.609 436.818,182.609 441.5,180.5 Z M 443.5,186.5 C 456.465,186.968 461.965,193.634 460,206.5C 454.718,215.83 447.218,217.996 437.5,213C 432.386,207.286 431.22,200.786 434,193.5C 436.529,190.115 439.696,187.782 443.5,186.5 Z"/>
    </g>
    <g>
        <path fill="#000000"
              d="M 560.5,180.5 C 568.763,179.804 575.43,182.637 580.5,189C 579.387,190.394 578.053,191.561 576.5,192.5C 565.645,183.266 556.812,184.933 550,197.5C 549.535,211.033 556.035,216.866 569.5,215C 572.266,213.533 574.766,211.7 577,209.5C 581.515,212.374 581.348,215.207 576.5,218C 561.347,225.5 550.514,221.333 544,205.5C 543.012,192.793 548.512,184.459 560.5,180.5 Z"/>
    </g>
    <g>
        <path fill="#000000"
              d="M 350.5,181.5 C 359.173,181.334 367.84,181.5 376.5,182C 377.406,183.699 377.739,185.533 377.5,187.5C 373.818,187.335 370.152,187.501 366.5,188C 367.653,198.757 367.82,209.59 367,220.5C 364.959,221.423 362.792,221.756 360.5,221.5C 359.751,210.305 360.085,199.139 361.5,188C 357.848,187.501 354.182,187.335 350.5,187.5C 350.5,185.5 350.5,183.5 350.5,181.5 Z"/>
    </g>
    <g>
        <path fill="#000000"
              d="M 489.5,181.5 C 492.365,181.055 494.865,181.722 497,183.5C 501.274,190.772 505.941,197.772 511,204.5C 512,203.167 513,203.167 514,204.5C 514.5,196.841 514.666,189.174 514.5,181.5C 516.833,181.5 519.167,181.5 521.5,181.5C 521.667,194.504 521.5,207.504 521,220.5C 518.936,221.591 516.769,221.758 514.5,221C 509.019,212.522 503.186,204.355 497,196.5C 495.533,204.663 495.033,212.996 495.5,221.5C 492.927,221.852 490.594,221.352 488.5,220C 489.443,207.066 489.777,194.233 489.5,181.5 Z M 512.5,206.5 C 514.225,206.843 514.725,207.843 514,209.5C 513.487,208.473 512.987,207.473 512.5,206.5 Z"/>
    </g>
    <g>
        <path fill="#000000"
              d="M 604.5,181.5 C 612.833,181.5 621.167,181.5 629.5,181.5C 629.5,183.5 629.5,185.5 629.5,187.5C 622.986,187.6 616.652,187.6 610.5,187.5C 609.52,190.086 609.187,192.753 609.5,195.5C 615.167,195.5 620.833,195.5 626.5,195.5C 626.5,197.5 626.5,199.5 626.5,201.5C 620.833,201.5 615.167,201.5 609.5,201.5C 609.334,206.179 609.501,210.845 610,215.5C 616.016,215.377 622.182,215.377 628.5,215.5C 628.5,217.5 628.5,219.5 628.5,221.5C 620.167,221.5 611.833,221.5 603.5,221.5C 603.186,208.087 603.519,194.754 604.5,181.5 Z"/>
    </g>
    <g>
        <path fill="#000000"
              d="M 311.5,181.5 C 313.604,181.201 315.604,181.534 317.5,182.5C 322.631,195.371 327.297,208.371 331.5,221.5C 329.208,221.756 327.041,221.423 325,220.5C 324.261,216.615 322.927,212.948 321,209.5C 316.493,209.747 311.993,209.747 307.5,209.5C 305.929,213.382 304.262,217.215 302.5,221C 299.947,221.851 297.614,221.518 295.5,220C 301.242,207.348 306.575,194.515 311.5,181.5 Z M 313.5,194.5 C 314.496,194.414 315.329,194.748 316,195.5C 316.735,197.871 317.568,200.205 318.5,202.5C 315.5,203.833 312.5,203.833 309.5,202.5C 311.024,199.926 312.358,197.259 313.5,194.5 Z"/>
    </g>
    <g>
        <path fill="#FF0043"
              d="M 214.5,220.5 C 210.842,221.838 207.176,222.171 203.5,221.5C 203.158,220.662 202.492,220.328 201.5,220.5C 201.5,219.833 201.167,219.5 200.5,219.5C 199.15,218.176 199.317,217.176 201,216.5C 206.354,220.455 211.521,220.122 216.5,215.5C 217.583,216.365 217.749,217.365 217,218.5C 216.005,219.066 215.172,219.733 214.5,220.5 Z"/>
    </g>
</svg>
