<?xml version="1.0" encoding="UTF-8"?>
<!DOCTYPE svg PUBLIC "-//W3C//DTD SVG 1.1//EN" "http://www.w3.org/Graphics/SVG/1.1/DTD/svg11.dtd">
<svg xmlns="http://www.w3.org/2000/svg" version="1.1"
     width="280px"
     height="300px"
     viewBox="180 50 1 200"
     style="shape-rendering:geometricPrecision; text-rendering:geometricPrecision; image-rendering:optimizeQuality; fill-rule:evenodd; clip-rule:evenodd"
     xmlns:xlink="http://www.w3.org/1999/xlink">
    <g>
        <path fill="#ffffff"
              d="M 203.5,59.5 C 212.892,58.61 219.726,62.2767 224,70.5C 225.081,75.4762 226.081,80.4762 227,85.5C 230.833,89.3333 234.667,93.1667 238.5,97C 243.476,98.0809 248.476,99.0809 253.5,100C 265.054,106.627 267.554,115.794 261,127.5C 258.441,130.531 255.274,132.698 251.5,134C 220.139,134.789 191.472,143.789 165.5,161C 159.599,168.768 160.265,175.768 167.5,182C 177.36,187.509 187.86,191.009 199,192.5C 213.797,189.474 222.631,195.307 225.5,210C 221.561,227.322 211.561,231.989 195.5,224C 188.632,209.797 178.299,198.797 164.5,191C 159.924,189.524 155.257,189.19 150.5,190C 132.643,200.161 116.81,197.661 103,182.5C 93.0918,162.559 97.5918,146.726 116.5,135C 124.833,131.667 133.167,131.667 141.5,135C 146.187,137.699 150.853,140.366 155.5,143C 180.543,143.874 202.877,136.541 222.5,121C 226.417,117.672 227.917,113.505 227,108.5C 222.591,103.42 217.591,99.0863 212,95.5C 200.764,97.2049 193.431,92.5382 190,81.5C 189.191,70.7647 193.691,63.4314 203.5,59.5 Z M 204.5,63.5 C 213.891,62.4374 219.724,66.4374 222,75.5C 222.143,79.6192 222.81,83.6192 224,87.5C 228.167,91.6667 232.333,95.8333 236.5,100C 241.306,101.869 246.306,102.869 251.5,103C 259.905,107.539 262.405,114.372 259,123.5C 258.5,123 258,122.5 257.5,122C 259.324,116.401 258.49,111.234 255,106.5C 254.075,107.047 253.242,107.713 252.5,108.5C 256.5,113.833 256.5,119.167 252.5,124.5C 254.401,125.935 254.734,127.602 253.5,129.5C 244.265,133.252 237.432,130.585 233,121.5C 232.918,115.837 231.584,110.504 229,105.5C 224.756,100.585 219.923,96.4187 214.5,93C 199.502,94.0025 192.668,87.1692 194,72.5C 196.052,67.7356 199.552,64.7356 204.5,63.5 Z M 228.5,122.5 C 229.909,124.972 231.576,127.305 233.5,129.5C 227.967,131.282 222.3,132.949 216.5,134.5C 215.354,133.855 214.354,133.022 213.5,132C 218.788,128.768 223.622,124.935 228,120.5C 228.464,121.094 228.631,121.761 228.5,122.5 Z M 124.5,136.5 C 143.822,135.654 154.822,144.821 157.5,164C 154.299,185.439 141.965,194.439 120.5,191C 101.64,181.759 96.8069,167.592 106,148.5C 110.652,142.095 116.818,138.095 124.5,136.5 Z M 206.5,136.5 C 205.22,137.931 203.553,138.598 201.5,138.5C 202.78,137.069 204.447,136.402 206.5,136.5 Z M 196.5,140.5 C 195.22,141.931 193.553,142.598 191.5,142.5C 192.78,141.069 194.447,140.402 196.5,140.5 Z M 191.5,142.5 C 189.898,144.074 187.898,144.741 185.5,144.5C 187.214,143.262 189.214,142.595 191.5,142.5 Z M 180.5,147.5 C 180.158,148.338 179.492,148.672 178.5,148.5C 171.38,151.886 165.547,156.219 161,161.5C 160.413,156.466 158.913,151.799 156.5,147.5C 163.766,147.803 170.933,147.136 178,145.5C 179.011,146.056 179.844,146.722 180.5,147.5 Z M 159.5,179.5 C 159.167,179.5 158.833,179.5 158.5,179.5C 157.537,178.637 157.537,177.97 158.5,177.5C 159.298,177.957 159.631,178.624 159.5,179.5 Z M 158.5,179.5 C 158.833,180.5 159.5,181.167 160.5,181.5C 161.347,182.966 162.68,183.8 164.5,184C 164.167,184.333 163.833,184.667 163.5,185C 164.416,185.278 165.082,185.778 165.5,186.5C 161.529,186.515 158.529,184.848 156.5,181.5C 156.855,180.478 157.522,179.811 158.5,179.5 Z M 154.5,182.5 C 155.309,183.469 156.309,184.302 157.5,185C 154.457,185.862 153.457,185.029 154.5,182.5 Z M 214.5,220.5 C 215.172,219.733 216.005,219.066 217,218.5C 217.749,217.365 217.583,216.365 216.5,215.5C 211.521,220.122 206.354,220.455 201,216.5C 199.317,217.176 199.15,218.176 200.5,219.5C 199.453,220.078 199.62,220.744 201,221.5C 201.399,221.272 201.565,220.938 201.5,220.5C 202.492,220.328 203.158,220.662 203.5,221.5C 202.833,221.5 202.5,221.833 202.5,222.5C 199.386,221.909 196.886,220.242 195,217.5C 193.519,214.044 191.852,210.711 190,207.5C 187.128,204.963 184.628,202.13 182.5,199C 176.766,194.812 171.099,190.646 165.5,186.5C 166.117,186.389 166.617,186.056 167,185.5C 179.277,193.376 192.611,196.709 207,195.5C 219.456,197.447 223.956,204.447 220.5,216.5C 219.25,219.049 217.25,220.382 214.5,220.5 Z M 214.5,220.5 C 214.316,223.173 213.149,223.84 211,222.5C 208.169,224.918 205.335,224.918 202.5,222.5C 203.167,222.5 203.5,222.167 203.5,221.5C 207.176,222.171 210.842,221.838 214.5,220.5 Z"/>
    </g>
</svg>
